<svg xmlns="http://www.w3.org/2000/svg" height="197.333" viewBox="0 0 169 148" width="225.333" stroke-linecap="butt" stroke-linejoin="round"><style><![CDATA[.B{clip-path:url(#A)}]]></style><g fill="#4285f4" stroke="#4285f4"><path d="M81.803 74.387L101.03 36.65l.237.122.118.06.118.062.117.062.118.062.117.063.117.063.117.064.117.064.233.13.116.065.116.065.115.066.116.066.115.067.115.067.115.067.115.068.114.068.114.068.114.07.114.07.113.07.114.07.113.07.113.07.112.07.113.07.112.072.112.072.112.072.112.072.11.073.11.073.11.074.1.074.11.074.1.075.1.075.1.075.11.076.11.076.11.076.11.077.108.077.11.077.108.078.107.078.108.078.107.08.214.158.107.08.106.08.106.08.106.08.105.08.105.08.105.082.105.082.105.082.104.083.104.083.104.083.103.084.103.084.103.084.103.085.102.085.102.085.102.086.102.086.1.086.1.087.1.087.1.087.1.087.1.088.1.088.1.088.1.09.1.09.196.18.098.1.098.1.097.09.098.09.096.09.097.09.192.184.096.092.2.186.2.187.094.094-.3.3-.3.3-.3.3-.3.3-.3.3-.3.3-.3.3-.3.3-.3.3-.3.3-.3.3-.3.3-26.054 26.054z" class="B"/><path d="M81.803 74.387L74.9 30.81l.137-.02.137-.02.137-.02.137-.02.137-.02.137-.02.137-.02.137-.018.137-.018.138-.018.137-.017.138-.017.138-.016.138-.016.138-.015.138-.015.138-.015.138-.014.138-.014.138-.013.138-.013.138-.012.138-.012.138-.012.138-.01.138-.01.138-.01.138-.01.138-.01.138-.01.138-.01.138-.008.138-.008.14-.007.138-.007.14-.006.138-.006.14-.006.14-.005.14-.005.138-.004.14-.004.14-.003.14-.003.14-.002.14-.002h.14.14l.14-.001h.14.14l.14.001h.14.14l.14.002.14.002.14.003.138.003.14.004.138.004.14.005.14.005.138.006.138.006.138.006.138.007.14.007.138.008.138.008.138.01.138.01.138.01.138.01.138.01.138.01.138.01.138.012.138.012.138.012.138.013.138.013.138.014.138.014.138.015.138.015.138.015.138.016.138.016.138.017.138.017.138.018.137.018.137.018.137.02.137.02.137.02.137.02.137.02.137.02.137.02-6.833 43.14z" class="B"/><path d="M81.803 74.387l-35.19-35.19.11-.1.11-.1.11-.1.112-.11.112-.11.112-.11.113-.108.113-.108.114-.108.114-.107.114-.107.114-.106.115-.106.115-.106.115-.105.116-.105.116-.105.117-.104.117-.104.117-.104.117-.103.118-.103.118-.102.118-.102.12-.102.12-.1.12-.1.12-.1.12-.1.12-.1.12-.1.12-.1.12-.1.122-.098.122-.098.122-.098.123-.097.123-.097.123-.096.123-.096.124-.096.124-.095.124-.095.124-.094.125-.094.125-.094.125-.093.126-.093.126-.093.126-.092.127-.092.127-.09.127-.09.128-.1.128-.1.128-.1.128-.09.13-.09.13-.09.13-.088.13-.088.13-.087.13-.087.13-.087.13-.086.13-.086.13-.085.13-.085.132-.084.132-.084.132-.084.132-.083.133-.083.133-.082.133-.082.133-.08.134-.08.134-.08.134-.08.134-.08.135-.08.135-.08.135-.08.136-.078.136-.078.136-.077.136-.077.136-.076.137-.076.137-.076.137-.075.137-.075.138-.074.138-.074.138-.073.138-.073.14-.072.14-.072.14-.072.14-.07 22.367 43.897z" class="B"/><path d="M81.803 74.387l-.43-.068-1.716-.272-.43-.068-40.33-6.388.022-.135.022-.135.022-.135.023-.135.023-.135.024-.134.024-.134.024-.134.025-.134.025-.134.026-.134.026-.134.027-.134.027-.134.028-.134.028-.134.028-.134.03-.133.03-.133.03-.133.03-.133.03-.133.03-.133.03-.133.032-.133.032-.133.033-.133.033-.132.033-.132.034-.132.034-.132.035-.132.035-.132.035-.132.036-.132.036-.132.037-.132.037-.13.038-.13.038-.13.038-.13.04-.13.04-.13.04-.13.04-.13.04-.13.04-.13.04-.13.042-.13.042-.13.042-.13.043-.13.043-.13.044-.13.044-.13.044-.13.045-.13.045-.13.046-.13.046-.13.046-.128.047-.128.047-.128.048-.128.048-.128.05-.128.05-.127.05-.127.05-.127.05-.127.05-.127.05-.127.05-.127.052-.126.052-.126.052-.126.053-.126.053-.126.054-.126.054-.125.054-.125.055-.125.055-.125.056-.125.056-.124.056-.124.057-.124.057-.124.057-.124.058-.124.058-.123.06-.123.06-.123.06-.123.06-.123.06-.122.06-.122.06-.122.06-.122.062-.122L81.415 74.2z" class="B"/><path d="M81.803 74.387l-45.84 23.357-.073-.144-.073-.144-.072-.145-.072-.145-.07-.145-.07-.145-.07-.145-.07-.146-.07-.146-.07-.146-.07-.146-.068-.146-.068-.147-.067-.147-.067-.147-.066-.147-.066-.148-.065-.148-.065-.148-.064-.148-.064-.148-.064-.15-.063-.15-.063-.15-.062-.15-.062-.15-.06-.15-.06-.15-.06-.15-.06-.15-.06-.15-.06-.15-.058-.15-.058-.15-.057-.15-.057-.15-.056-.15-.056-.152-.056-.152-.055-.152-.054-.152-.054-.152-.054-.153-.053-.153-.053-.153-.052-.153-.052-.153-.05-.153-.05-.154-.05-.154-.05-.154-.05-.154-.05-.154-.048-.154-.048-.154-.047-.154-.047-.155-.046-.155-.046-.155-.045-.155-.045-.155-.044-.155-.044-.156-.043-.156-.043-.156-.042-.156-.042-.156-.04-.156-.04-.156-.04-.157-.04-.157-.04-.157-.04-.157-.04-.157-.038-.157-.037-.157-.037-.157-.036-.157-.036-.158-.035-.158-.035-.158-.035-.158-.034-.158-.034-.158-.033-.158-.032-.158-.032-.158-.032-.16-.03-.16-.03-.16-.03-.16-.03-.16-.03-.16-.03-.16-.028-.16-.027-.16-.027-.16-.027-.16-.026-.16-.026-.16 50.306-7.968z" class="B"/><path d="M81.803 74.387l-20.35 39.94-.125-.064-.125-.065-.125-.064-.125-.066-.124-.065-.124-.067-.124-.066-.248-.134-.37-.204-.123-.07-.123-.07-.245-.14-.122-.07-.122-.07-.122-.07-.12-.072-.12-.07-.12-.073-.12-.072-.12-.073-.12-.074-.12-.073-.12-.075-.12-.074-.238-.15-.237-.152-.118-.076-.118-.077-.118-.077-.118-.078-.117-.078-.234-.156-.117-.08-.116-.08-.116-.08-.116-.08-.116-.08-.115-.08-.23-.162-.115-.082-.114-.083-.114-.082-.227-.166-.113-.084-.226-.168-.113-.085-.112-.085-.112-.086-.112-.085-.11-.087-.11-.086-.22-.174-.22-.176-.1-.088-.11-.088-.11-.09-.11-.1-.11-.09-.216-.18-.108-.09-.215-.182-.214-.184-.106-.092-.106-.093-.21-.186-.105-.094-.105-.094-.105-.094-.104-.094-.104-.095-.104-.096-.103-.095-.103-.096-.103-.096-.102-.097-.204-.194-.102-.098-.1-.097-.1-.1-.1-.098-.1-.1-.2-.198 31.38-31.38z" class="B"/><path d="M81.803 74.387l6.566 41.454-.39.06-.26.038-.392.054-.262.034-.393.048-.13.015-.13.014-.13.015-.13.013-.13.014-.262.026-.13.012-.13.01-.13.012-.13.01-.13.01-.132.01-.132.01-.132.01-.13.008-.132.01-.263.016-.263.014-.395.018-.263.01-.395.012-.132.003-.132.002-.132.003-.132.001-.132.002-.264.002h-.264l-.264-.002-.132-.002-.132-.001-.132-.003-.132-.002-.132-.003-.395-.012-.264-.01-.395-.018-.263-.014-.263-.016-.132-.01-.132-.008-.132-.01-.13-.01-.132-.01-.13-.01-.13-.01-.13-.012-.13-.01-.13-.012-.263-.026-.13-.014-.13-.013-.13-.015-.13-.014-.13-.015-.393-.048-.262-.034-.392-.054-.26-.038-.39-.06.066-.414L81.737 74.8z" class="B"/><path d="M81.803 74.387l33.065 33.064-.208.208-.105.103-.105.102-.105.103-.212.204-.106.1-.214.202-.107.1-.108.1-.107.1-.11.1-.108.1-.11.1-.11.098-.1.098-.11.098-.1.097-.11.097-.1.097-.222.192-.112.096-.224.2-.113.094-.112.095-.34.28-.114.093-.114.092-.23.184-.23.182-.116.09-.232.18-.116.09-.234.178-.118.088-.117.088-.118.088-.118.087-.12.087-.118.087-.12.086-.12.086-.12.085-.24.17-.12.084-.242.168-.12.083-.12.082-.122.083-.122.082-.122.08-.122.082-.123.08-.37.24-.372.237-.125.078-.124.077-.125.078-.125.077-.126.076-.125.076-.252.152-.127.075-.126.074-.254.148-.127.073-.128.073-.127.073-.256.144-.258.142-.128.07-.13.07-.13.07-.13.07-.26.138-.13.068-.13.067-.13.068-.13.067-.424-.834-.213-.416-.212-.417-20.167-39.58z" class="B"/><path d="M81.803 74.387l43.172 6.838-.02.136-.022.135-.07.406-.048.27-.05.27-.078.404-.054.27-.084.403-.058.268-.06.268-.062.268-.03.134-.064.267-.066.267-.102.4-.035.133-.035.133-.108.398-.074.264-.076.264-.04.132-.078.263-.12.394-.04.13-.126.392-.042.13-.044.13-.043.13-.088.26-.045.13-.1.26-.046.13-.047.13-.046.13-.047.13-.144.386-.098.257-.15.384-.153.382-.052.127-.053.127-.052.127-.054.127-.053.126-.108.252-.1.252-.112.25-.056.125-.17.375-.058.124-.06.124-.058.124-.06.124-.06.124-.06.124-.06.123-.06.123-.06.123-.062.123-.06.123-.063.123-38.556-19.645z" class="B"/><path d="M81.803 74.387l37.447-19.08.06.118.06.118.06.118.058.118.06.118.058.12.17.357.112.24.056.12.165.36.108.24.106.242.053.12.104.243.153.365.15.367.05.123.05.123.096.246.048.123.14.37.046.124.045.124.046.124.045.124.132.373.13.375.084.25.123.377.08.252.117.378.076.253.037.127.074.254.108.38.035.127.034.127.035.128.033.128.034.128.033.128.032.128.033.128.032.128.093.385.03.128.03.13.087.386.056.258.08.388.026.13.025.13.026.13.025.13.072.39.07.4.044.26.042.26-41.094 6.51z" class="B"/></g><g fill="#ea4335" stroke="#ea4335"><path d="M81.803 74.387L87.185 40.4l.107.017.107.017.107.018.107.018.106.02.106.02.106.02.106.02.106.02.106.02.106.02.212.042.106.02.106.022.106.022.106.022.106.023.106.023.106.023.105.024.105.024.105.024.2.05.105.025.105.026.105.026.105.026.105.027.105.027.105.027.105.028.104.028.104.028.104.03.208.058.104.03.104.03.104.03.104.03.104.03.103.03.103.032.103.032.103.032.103.033.103.033.103.033.103.034.103.034.103.034.102.034.102.035.102.035.102.035.102.036.102.036.102.037.102.037.102.037.1.038.1.038.1.038.1.038.1.04.1.04.1.04.1.04.1.04.1.04.1.04.1.04.1.04.1.04.1.042.1.042.1.043.1.043.1.043.1.043.1.044.1.044.1.044.1.045.098.045.098.045.098.046.098.046.098.046.098.046.097.047.097.047.097.047.097.048.097.048.097.048.097.05.096.05L81.96 74.08z" class="B"/><path d="M81.803 74.387L64.796 41.01l.105-.053.105-.053.105-.053.105-.052.106-.052.106-.052.106-.05.106-.05.106-.05.106-.05.107-.05.107-.05.107-.05.107-.05.107-.05.107-.048.108-.048.108-.048.108-.047.108-.047.108-.046.108-.046.108-.046.11-.045.11-.045.11-.045.11-.044.11-.044.11-.044.11-.044.11-.043.1-.043.1-.042.1-.042.1-.042.1-.04.1-.04.1-.04.11-.04.11-.04.11-.04.11-.04.11-.04.11-.04.11-.038.11-.038.112-.038.112-.037.112-.037.112-.037.112-.036.112-.036.112-.035.112-.035.112-.035.113-.034.113-.034.113-.034.113-.033.113-.033.113-.033.113-.032.113-.032.113-.032.114-.03.114-.03.114-.03.114-.03.114-.03.114-.03.114-.03.114-.03.114-.028.114-.028.114-.028.114-.027.115-.027.115-.027.115-.026.115-.026.115-.025.115-.025.23-.05.115-.024.115-.024.115-.023.115-.023.115-.023.116-.022.116-.022.116-.022.116-.02.116-.02.116-.02.116-.02.116-.02.116-.02.116-.02.116-.02 5.8 36.63z" class="B"/><path d="M81.803 74.387L52.41 59.41l.047-.092.047-.092.048-.092.048-.092.048-.092.05-.092.05-.09.05-.09.05-.09.05-.09.05-.09.05-.09.05-.1.05-.1.05-.1.052-.1.052-.1.052-.1.052-.09.053-.09.053-.09.053-.09.053-.09.054-.09.054-.088.054-.088.055-.088.055-.088.055-.088.055-.088.056-.087.056-.087.056-.087.056-.087.057-.087.057-.087.057-.086.058-.086.058-.086.058-.086.058-.086.06-.085.06-.085.06-.085.06-.085.06-.085.06-.085.06-.084.06-.084.06-.084.06-.084.06-.084.062-.083.062-.083.062-.083.062-.083.063-.083.063-.082.063-.082.063-.082.064-.082.064-.082.064-.08.064-.08.065-.08.065-.08.065-.08.065-.08.066-.08.066-.08.066-.08.066-.08.067-.08.067-.08.067-.08.067-.08.068-.078.068-.078.068-.078.068-.078.07-.078.07-.077.07-.077.07-.077.07-.077.07-.077.07-.076.07-.076.07-.076.07-.076.07-.075.07-.075.072-.075.072-.075.072-.075.072-.074.072-.074.073-.074.073-.074.073-.073L81.57 74.154z" class="B"/><path d="M81.803 74.387l-.435.07-43.058 6.82-.02-.137-.02-.137-.02-.137-.02-.137-.02-.137-.02-.137-.02-.137-.018-.137-.018-.137-.018-.137-.017-.137-.017-.137-.016-.137-.016-.137-.015-.138-.015-.138-.015-.138-.014-.138-.014-.138-.013-.138-.013-.138-.012-.138-.012-.138-.01-.138-.01-.138-.01-.138-.01-.138-.01-.138-.01-.138-.01-.138-.01-.138-.008-.138-.008-.138-.007-.138-.007-.138-.006-.138-.006-.138-.005-.138-.005-.138-.005-.138-.004-.138-.004-.138-.003-.138-.003-.138-.002-.138-.002-.138v-.138l-.001-.138-.001-.138v-.138-.138l.001-.138.001-.138v-.138l.002-.138.002-.138.003-.138.003-.138.004-.138.004-.138.005-.138.005-.138.005-.138.006-.138.006-.138.007-.138.007-.138.008-.138.008-.138.01-.138.01-.138.01-.138.01-.138.01-.138.01-.138.01-.138.01-.138.012-.138.012-.138.013-.138.013-.138.014-.138.014-.138.015-.138.015-.138.015-.138.016-.137.016-.137.017-.137.017-.137.018-.137.018-.137.018-.137.02-.137.02-.137.02-.137.02-.137.02-.137.02-.137.02-.137 43.058 6.82z" class="B"/><path d="M81.803 74.387L57.208 98.982l-.077-.077-.077-.078-.077-.078-.076-.078-.076-.078-.076-.08-.076-.08-.075-.08-.075-.08-.075-.08-.075-.08-.074-.08-.074-.08-.074-.08-.074-.08-.074-.08-.073-.08-.073-.08-.073-.082-.072-.082-.072-.082-.072-.082-.072-.082-.07-.083-.07-.083-.07-.083-.07-.083-.07-.084-.07-.084-.07-.084-.07-.084-.07-.085-.07-.085-.07-.085-.068-.085-.068-.085-.068-.086-.068-.086-.067-.086-.067-.086-.067-.086-.067-.087-.066-.087-.066-.087-.066-.087-.066-.088-.065-.088-.065-.088-.065-.088-.064-.088-.064-.088-.064-.09-.064-.09-.063-.09-.063-.09-.063-.1-.062-.1-.062-.1-.062-.1-.062-.1-.06-.1-.06-.09-.06-.09-.06-.09-.06-.09-.06-.09-.06-.092-.06-.092-.06-.092-.06-.092-.058-.092-.058-.093-.058-.093-.057-.093-.057-.093-.057-.093-.057-.094-.056-.094-.056-.094-.056-.094-.055-.094-.055-.094-.055-.094-.055-.095-.054-.095-.054-.095-.054-.095-.053-.095-.053-.096-.053-.096-.053-.096-.052-.096-.052-.096-.052-.096-.05-.096-.05-.097-.05-.097-.05-.097-.05-.097-.05-.097 30.68-15.633z" class="B"/><path d="M81.803 74.387l-6.49 40.986-.386-.063-.257-.044-.385-.07-.128-.024-.128-.025-.128-.024-.128-.025-.128-.026-.128-.025-.128-.027-.128-.026-.127-.027-.382-.084-.38-.087-.254-.06-.253-.062-.126-.03-.253-.064-.378-.1-.252-.068-.377-.105-.25-.072-.375-.11-.374-.114-.124-.04-.124-.04-.124-.04-.124-.04-.124-.04-.247-.082-.37-.126-.246-.086-.246-.088-.123-.044-.367-.135-.122-.046-.122-.047-.122-.046-.122-.047-.485-.192-.12-.05-.12-.05-.12-.05-.12-.05-.48-.204-.12-.052-.12-.053-.12-.052-.12-.054-.12-.053-.12-.054-.118-.054-.118-.055-.236-.1-.353-.168-.234-.114-.117-.058-.117-.057-.117-.06-.116-.058-.116-.06 18.65-36.604z" class="B"/><path d="M81.803 74.387l.324.635 15.856 31.118-.1.05-.2.1-.1.05-.1.05-.1.05-.1.048-.1.05-.1.048-.1.048-.406.188-.306.138-.205.1-.103.044-.103.045-.103.044-.103.043-.103.044-.103.043-.103.042-.104.043-.104.042-.104.04-.104.042-.21.082-.314.12-.2.078-.2.078-.105.038-.105.037-.106.038-.21.074-.318.108-.106.035-.32.105-.213.068-.32.1-.107.032-.215.064-.107.03-.108.032-.108.03-.108.03-.108.03-.108.03-.108.03-.108.03-.108.028-.108.03-.217.056-.217.054-.11.026-.11.027-.11.026-.11.025-.11.026-.11.025-.437.096-.33.07-.22.044-.44.084-.1.02-.1.02-.1.02-.22.038-.332.054-5.52-34.847z" class="B"/><path d="M81.803 74.387l28.017 14.275-.045.088-.046.088-.045.088-.046.088-.092.175-.14.26-.048.087-.047.087-.048.086-.05.086-.048.086-.098.172-.05.085-.05.085-.05.085-.1.17-.05.085-.05.085-.05.084-.052.084-.05.084-.052.084-.053.084-.052.084-.16.25-.108.166-.054.083-.054.082-.1.165-.1.164-.056.082-.056.08-.112.162-.114.162-.057.08-.058.08-.057.08-.058.08-.06.08-.058.08-.06.08-.06.08-.118.158-.06.08-.06.08-.12.156-.06.078-.06.078-.06.078-.062.077-.06.077-.124.154-.063.077-.062.076-.126.152-.063.076-.064.076-.128.15-.064.075-.065.075-.064.075-.065.074-.066.074-.065.074-.066.074-.066.074-.132.146-.067.073-.066.073-.068.073-.067.072-.067.072-.068.072-.136.143-.07.07-.068.07-.07.07-.138.14-.07.07-.07.07-22.01-22.01z" class="B"/><path d="M81.803 74.387l36.577-5.793.036.23.05.345.032.23.03.23.015.115.014.115.015.115.013.115.014.116.012.116.013.116.036.347.022.232.03.348.018.232.008.116.01.116.008.116.02.348.018.35.015.35.008.233.012.465v.116l.004.465v.233l-.004.465v.116l-.012.465-.008.233-.015.35-.018.35-.02.348-.008.116-.01.116-.008.116-.018.232-.03.348-.022.232-.036.347-.013.116-.012.116-.014.116-.013.116-.015.115-.014.115-.045.346-.032.23-.05.345-.036.23-36.21-5.735z" class="B"/><path d="M81.803 74.387l29.16-29.158.09.092.092.092.1.092.09.093.1.093.1.093.1.093.09.094.1.094.088.094.09.095.088.095.088.095.088.095.087.096.174.192.172.193.172.194.085.098.085.098.084.098.085.098.084.1.083.1.084.1.083.1.083.1.164.2.082.1.162.202.08.1.08.102.08.102.08.102.08.102.08.102.08.103.078.103.08.103.077.103.078.104.077.104.077.104.077.104.076.105.152.2.075.105.15.212.148.212.074.107.073.107.073.107.073.107.072.107.144.216.142.217.07.11.07.11.07.11.07.11.07.11.07.1.136.22.068.1.068.11.134.222.066.11.066.11.066.112.065.112.13.224.065.112.064.113.063.113.064.113.062.113.063.113.062.114.124.228.06.114.06.114.06.115.12.23.06.115.06.115L82.17 74.2z" class="B"/></g><g fill="#fff" stroke="#fff"><path d="M81.803 74.387v-18.6h.117l.117.001.117.002.117.003.117.003.117.004.117.005.117.005.117.006.117.007.117.008.117.008.117.01.116.01.116.01.116.01.116.012.116.013.116.014.116.014.116.015.116.016.116.017.116.017.115.018.115.02.115.02.115.02.115.02.115.022.115.022.115.023.114.024.114.024.114.025.114.026.114.026.114.027.113.028.113.03.113.03.113.03.113.03.112.032.112.032.112.033.112.034.112.034.11.035.11.036.11.036.11.037.11.038.1.04.1.04.1.04.11.04.11.04.11.042.11.043.108.043.108.044.108.045.108.045.107.046.107.047.107.047.106.048.106.05.106.05.106.05.105.05.105.052.105.052.104.053.104.053.104.054.103.055.103.055.103.056.102.057.102.057.102.058.1.06.1.06.1.06.1.06.1.06.1.062.1.062.1.063.098.064.098.064.097.065.097.065.096.066.096.067.096.067.095.068.095.068-10.823 14.897z" class="B"/><path d="M81.803 74.387L70.87 59.34l.095-.068.095-.068.096-.067.096-.067.096-.066.097-.065.097-.065.098-.064.098-.064.1-.063.1-.062.1-.062.1-.06.1-.06.1-.06.1-.06.1-.06.102-.058.102-.057.102-.057.103-.056.103-.055.103-.055.104-.054.104-.053.104-.053.105-.052.105-.052.105-.05.106-.05.106-.05.106-.05.106-.048.107-.047.107-.047.107-.046.108-.045.108-.045.108-.044.108-.043.11-.043.11-.042.11-.04.11-.04.1-.04.1-.04.1-.04.11-.038.11-.037.11-.036.11-.036.112-.035.112-.034.112-.034.112-.033.112-.032.112-.032.113-.03.113-.03.113-.03.113-.03.113-.028.114-.027.114-.026.114-.026.114-.025.114-.024.114-.024.115-.023.115-.022.115-.022.115-.02.115-.02.115-.02.115-.02.116-.018.116-.017.116-.017.116-.016.116-.015.116-.014.116-.014.116-.013.116-.012.116-.01.116-.01.116-.01.117-.01.117-.008.117-.008.117-.007.117-.006.117-.005.117-.005.117-.004.117-.003.117-.003.117-.002.117-.001h.117V74.2z" class="B"/><path d="M81.803 74.387l-17.7-5.748.037-.11.037-.11.038-.11.04-.1.04-.1.04-.1.04-.1.04-.11.042-.11.043-.11.043-.11.044-.108.045-.108.045-.108.046-.107.047-.107.047-.107.048-.106.05-.106.05-.106.05-.106.05-.105.05-.105.052-.105.053-.104.053-.104.054-.104.055-.103.055-.103.056-.103.057-.102.057-.102.058-.102.06-.1.06-.1.06-.1.06-.1.06-.1.062-.1.062-.1.063-.1.064-.098.064-.098.065-.097.065-.097.066-.096.067-.096.067-.096.068-.095.068-.095.07-.094.07-.094.07-.093.07-.093.07-.093.072-.092.073-.092.073-.09.074-.09.074-.1.075-.1.075-.09.076-.09.076-.088.077-.088.078-.087.078-.087.08-.086.08-.086.08-.085.08-.085.08-.084.08-.084.082-.083.082-.083.083-.082.083-.082.084-.08.085-.08.085-.08.085-.08.086-.08.086-.08.087-.078.087-.078.088-.077.088-.076.09-.076.09-.075.1-.075.1-.074.09-.074.09-.073.092-.073.092-.072.093-.07.093-.07.094-.07.094-.07.094-.07.875 1.204.11.15 9.84 13.543z" class="B"/><path d="M81.803 74.387l-17.7 5.748-.036-.11-.035-.112-.034-.112-.034-.112-.033-.112-.032-.112-.032-.113-.03-.113-.03-.113-.03-.113-.03-.113-.028-.113-.027-.114-.027-.114-.026-.114-.025-.114-.024-.114-.024-.114-.023-.115-.022-.115-.022-.115v-.115l-.02-.115-.02-.115-.02-.115-.018-.115-.017-.116-.017-.116-.016-.116-.015-.116-.014-.116-.014-.116-.013-.116-.012-.116-.01-.116-.01-.116-.01-.116-.01-.117-.008-.117-.008-.117-.007-.117-.006-.117-.005-.117-.005-.117-.004-.117-.003-.117-.003-.117-.002-.117-.001-.117v-.117-.117l.001-.117.002-.117.003-.117.003-.117.004-.117.005-.117.005-.117.006-.117.007-.117.008-.117.008-.117.01-.117.01-.117.01-.116.01-.116.012-.116.013-.116.014-.116.014-.116.015-.116.016-.116.017-.116.017-.116.018-.115.02-.115.02-.115.02-.115v-.115l.022-.115.022-.115.023-.115.024-.115.024-.114.025-.114.026-.114.027-.114.027-.114.028-.114.03-.113.03-.113.03-.113.03-.113.032-.112.032-.112.033-.112.034-.112.034-.112.035-.112.036-.11 17.513 5.7z" class="B"/><path d="M81.803 74.387L70.87 89.435l-.094-.07-.094-.07-.094-.07-.093-.07-.093-.07-.092-.072-.092-.072-.09-.073-.09-.074-.1-.074-.1-.075-.09-.075-.09-.076-.088-.076-.088-.077-.087-.078-.087-.078-.086-.08-.086-.08-.085-.08-.085-.08-.085-.08-.084-.08-.083-.082-.083-.082-.082-.083-.082-.083-.08-.084-.08-.084-.08-.085-.08-.085-.08-.086-.08-.087-.078-.087-.078-.087-.077-.088-.076-.088-.076-.09-.075-.09-.075-.1-.074-.1-.074-.09-.073-.09-.073-.092-.072-.092-.07-.093-.07-.093-.07-.093-.07-.094-.07-.094-.068-.095-.068-.095-.067-.096-.067-.096-.066-.097-.065-.097-.065-.097-.064-.098-.064-.098-.063-.098-.062-.1-.062-.1-.06-.1-.06-.1-.06-.1-.06-.1-.06-.1-.058-.102-.057-.102-.057-.102-.056-.103-.055-.103-.055-.103-.054-.104-.053-.104-.053-.104-.052-.105-.05-.105-.05-.105-.05-.106-.05-.106-.05-.106-.048-.107-.047-.107-.047-.107-.046-.107-.045-.108-.045-.108-.044-.108-.043-.11-.043-.11-.042-.11-.04-.11-.04-.1-.04-.1-.04-.1-.04-.1-.038-.11-.037-.11-.037-.11 17.513-5.7z" class="B"/><path d="M81.803 74.387v18.6h-.117l-.117-.001-.117-.002-.117-.003-.117-.003-.117-.004-.117-.005-.117-.006-.117-.006-.117-.007-.117-.008-.117-.008-.117-.01-.116-.01-.116-.01-.116-.01-.116-.012-.116-.013-.116-.013-.116-.014-.116-.015-.116-.016-.116-.016-.116-.017-.116-.018-.115-.02-.115-.02-.115-.02-.115-.02-.115-.022-.115-.022-.115-.023-.114-.024-.114-.024-.114-.025-.114-.026-.114-.027-.114-.027-.113-.028-.113-.03-.113-.03-.113-.03-.113-.03-.112-.03-.112-.032-.112-.033-.112-.034-.112-.034-.112-.035-.11-.036-.11-.036-.11-.037-.11-.038-.1-.038-.1-.04-.1-.04-.11-.04-.11-.04-.11-.042-.11-.043-.108-.043-.108-.044-.108-.045-.108-.045-.107-.046-.107-.047-.107-.047-.106-.048-.106-.05-.106-.05-.106-.05-.105-.05-.105-.05-.105-.052-.104-.053-.104-.053-.104-.054-.103-.055-.103-.055-.103-.056-.102-.057-.102-.057-.102-.058-.1-.058-.1-.06-.1-.06-.1-.06-.1-.06-.1-.062-.1-.062-.1-.063-.098-.064-.098-.064-.097-.065-.097-.065-.096-.066-.096-.067-.096-.067-.095-.068-.095-.068.11-.15 10.714-14.747z" class="B"/><path d="M81.803 74.387l.11.15 10.823 14.897-.095.068-.095.068-.096.067-.096.067-.096.066-.097.065-.097.065-.098.064-.098.064-.1.063-.1.062-.1.062-.1.06-.1.06-.1.06-.1.06-.1.058-.102.058-.102.057-.102.057-.103.056-.103.055-.103.055-.104.054-.104.053-.104.053-.105.052-.105.05-.105.05-.106.05-.106.05-.106.05-.106.048-.107.047-.107.047-.107.046-.108.045-.108.045-.108.044-.108.043-.11.043-.11.042-.11.04-.11.04-.1.04-.1.04-.1.038-.11.038-.11.037-.11.036-.11.036-.11.035-.112.034-.112.034-.112.033-.112.032-.112.03-.113.03-.113.03-.113.03-.113.03-.113.028-.114.027-.114.027-.114.026-.114.025-.114.024-.114.024-.115.023-.115.022-.115.022-.115.02-.115.02-.115.02-.115.02-.115.018-.116.017-.116.016-.116.016-.116.015-.116.014-.116.013-.116.013-.116.012-.116.01-.116.01-.116.01-.117.01-.117.008-.117.008-.117.007-.117.006-.117.006-.117.005-.117.004-.117.003-.117.003-.117.002-.117.001h-.117V74.573z" class="B"/><path d="M81.803 74.387l17.7 5.748-.037.11-.037.11-.038.11-.04.1-.04.1-.04.1-.04.1-.04.11-.042.11-.043.11-.043.11-.044.108-.045.108-.045.108-.046.107-.047.107-.047.107-.048.107-.05.106-.05.106-.05.106-.05.105-.05.105-.052.105-.053.104-.053.104-.054.104-.055.103-.055.103-.056.103-.057.102-.057.102-.058.102-.06.1-.06.1-.06.1-.06.1-.06.1-.062.1-.062.1-.063.098-.064.098-.064.098-.065.097-.065.097-.066.097-.067.096-.067.096-.068.095-.068.095-.07.094-.07.094-.07.093-.07.093-.07.093-.072.092-.072.092-.073.09-.074.09-.074.1-.075.1-.075.09-.076.09-.076.088-.077.088-.078.087-.078.087-.08.087-.08.086-.08.085-.08.085-.08.084-.08.084-.082.083-.082.083-.083.082-.083.082-.084.08-.084.08-.085.08-.085.08-.086.08-.086.08-.087.078-.087.078-.088.077-.088.076-.09.076-.09.075-.1.075-.1.074-.09.074-.09.073-.092.072-.092.072-.093.07-.093.07-.093.07-.094.07-.094.07-10.823-14.897z" class="B"/><path d="M81.803 74.387l17.7-5.748.036.11.035.112.034.112.034.112.033.112.032.112.032.112.03.113.03.113.03.113.03.113.028.114.027.114.027.114.026.114.025.114.024.114.024.115.023.115.044.23.06.345.02.115.017.115.018.116.032.232.015.116.028.232.012.116.013.116.022.233.01.117.01.117.016.233.007.117.012.234.012.35.004.234.002.234-.002.234-.004.234-.012.35-.012.233-.007.117-.016.233-.01.117-.01.116-.022.233-.013.116-.012.116-.028.232-.015.116-.032.23-.018.116-.017.115-.02.115-.06.345-.044.23-.023.115-.024.114-.024.114-.025.114-.026.114-.027.114-.027.114-.028.113-.03.113-.03.113-.03.113-.03.113-.032.113-.032.112-.033.112-.034.112-.034.112-.035.112-.036.11-17.513-5.7z" class="B"/><path d="M81.803 74.387l.11-.15L92.735 59.34l.094.07.094.07.093.07.093.07.093.07.092.072.092.073.09.073.09.074.1.074.1.075.09.075.09.076.088.076.088.077.087.078.087.078.086.08.086.08.085.08.085.08.084.08.084.08.083.082.083.082.082.083.082.083.08.084.08.084.08.085.08.085.08.086.08.086.078.087.078.087.077.088.076.088.076.09.075.09.075.1.074.1.074.09.073.09.072.092.072.092.07.093.07.093.07.093.07.094.07.094.068.095.068.095.067.096.067.096.066.096.065.097.065.097.064.098.064.098.063.1.062.1.062.1.06.1.06.1.06.1.06.1.06.1.058.102.057.102.057.102.056.103.055.103.055.103.054.104.053.104.053.104.052.105.05.105.05.105.05.106.05.106.05.106.048.106.047.107.047.107.046.107.045.108.045.108.044.108.043.11.043.11.042.11.04.11.04.1.04.1.04.1.04.1.038.11.037.11.037.11-.354.115-17.16 5.575z" class="B"/></g><defs><clipPath id="A"><path d="M81.803 130.187c14.798 0 28.993-5.88 39.457-16.344a55.8 55.8 0 0 0 16.344-39.456c0-14.798-5.88-28.993-16.344-39.457S96.6 18.587 81.803 18.587 52.8 24.466 42.346 34.93 26.003 59.59 26.003 74.387a55.8 55.8 0 0 0 16.343 39.456c10.464 10.464 24.658 16.344 39.457 16.344z"/></clipPath></defs></svg>